<?xml version="1.0" encoding="UTF-8"?>
<svg width="14px" height="8px" viewBox="0 0 14 8" version="1.1" xmlns="http://www.w3.org/2000/svg" xmlns:xlink="http://www.w3.org/1999/xlink">
    <!-- Generator: Sketch 47.1 (45422) - http://www.bohemiancoding.com/sketch -->
    <title>Caps</title>
    <desc>Created with Sketch.</desc>
    <defs></defs>
    <g id="Welcome" stroke="none" stroke-width="1" fill="none" fill-rule="evenodd">
        <g id="Font" transform="translate(-240.000000, -285.000000)" fill="#4A4A4A">
            <g id="Font_bar" transform="translate(0.000000, 88.000000)">
                <g id="Default_Style" transform="translate(93.000000, 17.000000)">
                    <g id="Other-Options" transform="translate(11.000000, 177.000000)">
                        <g id="Caps-options" transform="translate(136.000000, 0.000000)">
                            <path d="M6.58007812,3 L6.66796875,4.86328125 L6.4453125,4.86328125 C6.40234354,4.53515461 6.34375037,4.30078195 6.26953125,4.16015625 C6.14843689,3.93359262 5.98730569,3.7666021 5.78613281,3.65917969 C5.58495993,3.55175728 5.32031414,3.49804688 4.9921875,3.49804688 L3.87304688,3.49804688 L3.87304688,9.56835938 C3.87304688,10.0566431 3.92578072,10.3613275 4.03125,10.4824219 C4.17968824,10.6464852 4.40820158,10.7285156 4.71679688,10.7285156 L4.9921875,10.7285156 L4.9921875,10.9453125 L1.62304688,10.9453125 L1.62304688,10.7285156 L1.90429688,10.7285156 C2.24023605,10.7285156 2.47851492,10.6269541 2.61914062,10.4238281 C2.70507855,10.2988275 2.74804688,10.0136741 2.74804688,9.56835938 L2.74804688,3.49804688 L1.79296875,3.49804688 C1.42187314,3.49804688 1.15820391,3.52539035 1.00195312,3.58007812 C0.798827109,3.65429725 0.625000723,3.79687395 0.48046875,4.0078125 C0.335936777,4.21875105 0.250000137,4.50390445 0.22265625,4.86328125 L0,4.86328125 L0.09375,3 L6.58007812,3 Z M13.9101562,3 L13.9980469,4.86328125 L13.7753906,4.86328125 C13.7324217,4.53515461 13.6738285,4.30078195 13.5996094,4.16015625 C13.478515,3.93359262 13.3173838,3.7666021 13.1162109,3.65917969 C12.9150381,3.55175728 12.6503923,3.49804688 12.3222656,3.49804688 L11.203125,3.49804688 L11.203125,9.56835938 C11.203125,10.0566431 11.2558588,10.3613275 11.3613281,10.4824219 C11.5097664,10.6464852 11.7382797,10.7285156 12.046875,10.7285156 L12.3222656,10.7285156 L12.3222656,10.9453125 L8.953125,10.9453125 L8.953125,10.7285156 L9.234375,10.7285156 C9.57031418,10.7285156 9.80859305,10.6269541 9.94921875,10.4238281 C10.0351567,10.2988275 10.078125,10.0136741 10.078125,9.56835938 L10.078125,3.49804688 L9.12304688,3.49804688 C8.75195127,3.49804688 8.48828203,3.52539035 8.33203125,3.58007812 C8.12890523,3.65429725 7.95507885,3.79687395 7.81054688,4.0078125 C7.6660149,4.21875105 7.58007826,4.50390445 7.55273438,4.86328125 L7.33007812,4.86328125 L7.42382812,3 L13.9101562,3 Z" id="Caps"></path>
                        </g>
                    </g>
                </g>
            </g>
        </g>
    </g>
</svg>