<?xml version="1.0" encoding="UTF-8"?>
<svg width="6px" height="8px" viewBox="0 0 6 8" version="1.1" xmlns="http://www.w3.org/2000/svg" xmlns:xlink="http://www.w3.org/1999/xlink">
    <!-- Generator: Sketch 47.1 (45422) - http://www.bohemiancoding.com/sketch -->
    <title>Ligatures</title>
    <desc>Created with Sketch.</desc>
    <defs></defs>
    <g id="Welcome" stroke="none" stroke-width="1" fill="none" fill-rule="evenodd">
        <g id="Font" transform="translate(-180.000000, -285.000000)" fill="#4A4A4A">
            <g id="Font_bar" transform="translate(0.000000, 88.000000)">
                <g id="Default_Style" transform="translate(93.000000, 17.000000)">
                    <g id="Other-Options" transform="translate(11.000000, 177.000000)">
                        <g id="Advanced-option" transform="translate(76.000000, 0.000000)">
                            <g id="Ligatures" transform="translate(0.000000, 3.000000)">
                                <path d="M1.92407397,2.5485339 C1.92407397,1.8733798 1.97292471,1.40100236 2.07016533,1.13094072 C2.14159802,0.932311769 2.27202028,0.755803906 2.46143211,0.601877988 C2.65084394,0.448412927 2.84117749,0.371449968 3.03243274,0.371449968 C3.19004551,0.371449968 3.32092862,0.399562187 3.4260038,0.455786624 C3.56472147,0.534593007 3.69606544,0.66225013 3.82003572,0.838297137 C4.03387292,1.14200127 4.18549456,1.32680454 4.27582234,1.3922461 C4.36568927,1.45814851 4.47445129,1.49086929 4.60210842,1.49086929 C4.71824414,1.49086929 4.81871076,1.44800968 4.90304741,1.36136874 C4.98738407,1.27518866 5.02932197,1.16827006 5.02932197,1.04107379 C5.02932197,0.894521574 4.96664554,0.73783052 4.84083185,0.571000634 C4.715479,0.404170747 4.52099775,0.267296503 4.25877067,0.160377902 C3.99608272,0.0534593007 3.70343914,0 3.38130077,0 C2.91214932,0 2.49230946,0.11060545 2.1208595,0.331816349 C1.74987038,0.553488104 1.46920906,0.856270522 1.27979722,1.24062446 C1.09038539,1.6249784 0.995909903,2.16049312 0.995909903,2.84670776 L0,2.84670776 L0,3.26839104 L0.995909903,3.26839104 L0.995909903,6.62157958 C0.995909903,7.11653897 0.937842042,7.43637306 0.821245463,7.580621 C0.705109741,7.7253298 0.515697909,7.79722334 0.253470822,7.79722334 L0.0506941644,7.79722334 L0.0506941644,8 L2.86375943,8 L2.86375943,7.79722334 L2.62734028,7.79722334 C2.50705686,7.79722334 2.36465234,7.74468575 2.19966588,7.63961058 C2.0945907,7.57601244 2.0254623,7.49904948 1.99135895,7.40918256 C1.94665591,7.28935999 1.92407397,7.02667204 1.92407397,6.62157958 L1.92407397,3.26839104 L3.17852411,3.26839104 C3.63615416,3.26839104 3.90713751,3.284521 3.99147416,3.31632006 C4.07581082,3.34811913 4.13295697,3.39236131 4.16291261,3.44858575 C4.20070281,3.52001843 4.21913705,3.72970793 4.21913705,4.07857595 L4.21913705,6.80730457 C4.21913705,7.19350193 4.18180771,7.44282505 4.10668817,7.55527392 C4.001613,7.71657354 3.7656547,7.79722334 3.39789158,7.79722334 L3.39789158,8 L5.96347716,8 L5.96347716,7.79722334 C5.61460914,7.78984965 5.39017224,7.72717322 5.2910882,7.60873322 C5.19154329,7.49075408 5.14177084,7.22345757 5.14177084,6.80730457 L5.14177084,2.81306527 L4.89429115,2.81306527 C4.77078173,2.83564721 4.49887666,2.84670776 4.07857595,2.84670776 L1.92407397,2.84670776 L1.92407397,2.5485339 Z" id="Fill-1"></path>
                            </g>
                        </g>
                    </g>
                </g>
            </g>
        </g>
    </g>
</svg>