<?xml version="1.0" encoding="UTF-8"?>
<svg width="7px" height="8px" viewBox="0 0 7 8" version="1.1" xmlns="http://www.w3.org/2000/svg" xmlns:xlink="http://www.w3.org/1999/xlink">
    <!-- Generator: Sketch 47.1 (45422) - http://www.bohemiancoding.com/sketch -->
    <title>Lowercase</title>
    <desc>Created with Sketch.</desc>
    <defs></defs>
    <g id="Welcome" stroke="none" stroke-width="1" fill="none" fill-rule="evenodd">
        <g id="Font" transform="translate(-285.000000, -285.000000)" fill="#4A4A4A">
            <g id="Font_bar" transform="translate(0.000000, 88.000000)">
                <g id="Default_Style" transform="translate(93.000000, 17.000000)">
                    <g id="Other-Options" transform="translate(11.000000, 177.000000)">
                        <g id="Caps-options" transform="translate(136.000000, 0.000000)">
                            <path d="M46.8164062,3 L46.8164062,4.76367188 L48.0703125,4.76367188 L48.0703125,5.17382812 L46.8164062,5.17382812 L46.8164062,8.65429688 C46.8164062,9.00195486 46.8662104,9.23632752 46.9658203,9.35742188 C47.0654302,9.47851623 47.1933586,9.5390625 47.3496094,9.5390625 C47.4785163,9.5390625 47.603515,9.49902384 47.7246094,9.41894531 C47.8457037,9.33886679 47.9394528,9.22070391 48.0058594,9.06445312 L48.234375,9.06445312 C48.0976556,9.44726754 47.9042981,9.7353506 47.6542969,9.92871094 C47.4042956,10.1220713 47.1464857,10.21875 46.8808594,10.21875 C46.701171,10.21875 46.5253915,10.1689458 46.3535156,10.0693359 C46.1816398,9.96972606 46.0546879,9.82714937 45.9726562,9.64160156 C45.8906246,9.45605376 45.8496094,9.16992381 45.8496094,8.78320312 L45.8496094,5.17382812 L45,5.17382812 L45,4.98046875 C45.2148448,4.89453082 45.4345692,4.74902446 45.6591797,4.54394531 C45.8837902,4.33886616 46.0839835,4.09570453 46.2597656,3.81445312 C46.3496098,3.66601488 46.4746086,3.39453322 46.6347656,3 L46.8164062,3 Z M50.1503906,3 L50.1503906,4.76367188 L51.4042969,4.76367188 L51.4042969,5.17382812 L50.1503906,5.17382812 L50.1503906,8.65429688 C50.1503906,9.00195486 50.2001948,9.23632752 50.2998047,9.35742188 C50.3994146,9.47851623 50.527343,9.5390625 50.6835938,9.5390625 C50.8125006,9.5390625 50.9374994,9.49902384 51.0585938,9.41894531 C51.1796881,9.33886679 51.2734372,9.22070391 51.3398438,9.06445312 L51.5683594,9.06445312 C51.4316399,9.44726754 51.2382825,9.7353506 50.9882812,9.92871094 C50.73828,10.1220713 50.4804701,10.21875 50.2148438,10.21875 C50.0351554,10.21875 49.8593759,10.1689458 49.6875,10.0693359 C49.5156241,9.96972606 49.3886723,9.82714937 49.3066406,9.64160156 C49.224609,9.45605376 49.1835938,9.16992381 49.1835938,8.78320312 L49.1835938,5.17382812 L48.3339844,5.17382812 L48.3339844,4.98046875 C48.5488292,4.89453082 48.7685536,4.74902446 48.9931641,4.54394531 C49.2177746,4.33886616 49.4179679,4.09570453 49.59375,3.81445312 C49.6835942,3.66601488 49.8085929,3.39453322 49.96875,3 L50.1503906,3 Z" id="Lowercase"></path>
                        </g>
                    </g>
                </g>
            </g>
        </g>
    </g>
</svg>