<?xml version="1.0" encoding="UTF-8"?>
<svg width="11px" height="8px" viewBox="0 0 11 8" version="1.1" xmlns="http://www.w3.org/2000/svg" xmlns:xlink="http://www.w3.org/1999/xlink">
    <!-- Generator: Sketch 47.1 (45422) - http://www.bohemiancoding.com/sketch -->
    <title>Sentence Case</title>
    <desc>Created with Sketch.</desc>
    <defs></defs>
    <g id="Welcome" stroke="none" stroke-width="1" fill="none" fill-rule="evenodd">
        <g id="Font" transform="translate(-302.000000, -285.000000)" fill="#4A4A4A">
            <g id="Font_bar" transform="translate(0.000000, 88.000000)">
                <g id="Default_Style" transform="translate(93.000000, 17.000000)">
                    <g id="Other-Options" transform="translate(11.000000, 177.000000)">
                        <g id="Caps-options" transform="translate(136.000000, 0.000000)">
                            <path d="M68.5800781,3 L68.6679688,4.86328125 L68.4453125,4.86328125 C68.4023435,4.53515461 68.3437504,4.30078195 68.2695312,4.16015625 C68.1484369,3.93359262 67.9873057,3.7666021 67.7861328,3.65917969 C67.5849599,3.55175728 67.3203141,3.49804688 66.9921875,3.49804688 L65.8730469,3.49804688 L65.8730469,9.56835938 C65.8730469,10.0566431 65.9257807,10.3613275 66.03125,10.4824219 C66.1796882,10.6464852 66.4082016,10.7285156 66.7167969,10.7285156 L66.9921875,10.7285156 L66.9921875,10.9453125 L63.6230469,10.9453125 L63.6230469,10.7285156 L63.9042969,10.7285156 C64.2402361,10.7285156 64.4785149,10.6269541 64.6191406,10.4238281 C64.7050786,10.2988275 64.7480469,10.0136741 64.7480469,9.56835938 L64.7480469,3.49804688 L63.7929688,3.49804688 C63.4218731,3.49804688 63.1582039,3.52539035 63.0019531,3.58007812 C62.7988271,3.65429725 62.6250007,3.79687395 62.4804688,4.0078125 C62.3359368,4.21875105 62.2500001,4.50390445 62.2226562,4.86328125 L62,4.86328125 L62.09375,3 L68.5800781,3 Z M70.9003906,3.81445312 L70.9003906,5.578125 L72.1542969,5.578125 L72.1542969,5.98828125 L70.9003906,5.98828125 L70.9003906,9.46875 C70.9003906,9.81640799 70.9501948,10.0507806 71.0498047,10.171875 C71.1494146,10.2929694 71.277343,10.3535156 71.4335938,10.3535156 C71.5625006,10.3535156 71.6874994,10.313477 71.8085938,10.2333984 C71.9296881,10.1533199 72.0234372,10.035157 72.0898438,9.87890625 L72.3183594,9.87890625 C72.1816399,10.2617207 71.9882825,10.5498037 71.7382812,10.7431641 C71.48828,10.9365244 71.2304701,11.0332031 70.9648438,11.0332031 C70.7851554,11.0332031 70.6093759,10.9833989 70.4375,10.8837891 C70.2656241,10.7841792 70.1386723,10.6416025 70.0566406,10.4560547 C69.974609,10.2705069 69.9335938,9.98437693 69.9335938,9.59765625 L69.9335938,5.98828125 L69.0839844,5.98828125 L69.0839844,5.79492188 C69.2988292,5.70898395 69.5185536,5.56347759 69.7431641,5.35839844 C69.9677746,5.15331929 70.1679679,4.91015766 70.34375,4.62890625 C70.4335942,4.48046801 70.5585929,4.20898635 70.71875,3.81445312 L70.9003906,3.81445312 Z" id="Sentence-Case"></path>
                        </g>
                    </g>
                </g>
            </g>
        </g>
    </g>
</svg>