<?xml version="1.0" encoding="UTF-8"?>
<svg width="14px" height="9px" viewBox="0 0 14 9" version="1.1" xmlns="http://www.w3.org/2000/svg" xmlns:xlink="http://www.w3.org/1999/xlink">
    <!-- Generator: Sketch 47.1 (45422) - http://www.bohemiancoding.com/sketch -->
    <title>Small caps</title>
    <desc>Created with Sketch.</desc>
    <defs></defs>
    <g id="Welcome" stroke="none" stroke-width="1" fill="none" fill-rule="evenodd">
        <g id="Font" transform="translate(-261.000000, -284.000000)" stroke="#4A4A4A" stroke-width="0.05" fill="#4A4A4A">
            <g id="Font_bar" transform="translate(0.000000, 88.000000)">
                <g id="Default_Style" transform="translate(93.000000, 17.000000)">
                    <g id="Other-Options" transform="translate(11.000000, 177.000000)">
                        <g id="Caps-options" transform="translate(136.000000, 0.000000)">
                            <path d="M34.1153899,4.9453125 L34.1817616,6.35239215 L34.01362,6.35239215 C33.9811715,6.1046033 33.9369241,5.92761392 33.8808767,5.82141869 C33.7894308,5.65032639 33.6677506,5.52422146 33.5158324,5.44310011 C33.3639142,5.36197876 33.1640637,5.32141869 32.9162749,5.32141869 L32.0711421,5.32141869 L32.0711421,9.90548949 C32.0711421,10.2742229 32.1109648,10.5043091 32.1906112,10.595755 C32.3027061,10.7196494 32.4752708,10.7815957 32.7083103,10.7815957 L32.9162749,10.7815957 L32.9162749,10.9453125 L30.3720271,10.9453125 L30.3720271,10.7815957 L30.5844165,10.7815957 C30.8381051,10.7815957 31.0180443,10.7049003 31.1242395,10.5515072 C31.1891366,10.4571114 31.2215846,10.2417744 31.2215846,9.90548949 L31.2215846,5.32141869 L30.5003457,5.32141869 C30.2201083,5.32141869 30.0209952,5.34206746 29.9030006,5.3833656 C29.7496075,5.43941308 29.6183403,5.54708162 29.5091952,5.70637445 C29.4000502,5.86566728 29.335154,6.08100436 29.314505,6.35239215 L29.1463634,6.35239215 L29.2171598,4.9453125 L34.1153899,4.9453125 Z M28.5800781,3 L28.6679688,4.86328125 L28.4453125,4.86328125 C28.4023435,4.53515461 28.3437504,4.30078195 28.2695312,4.16015625 C28.1484369,3.93359262 27.9873057,3.7666021 27.7861328,3.65917969 C27.5849599,3.55175728 27.3203141,3.49804688 26.9921875,3.49804688 L25.8730469,3.49804688 L25.8730469,9.56835938 C25.8730469,10.0566431 25.9257807,10.3613275 26.03125,10.4824219 C26.1796882,10.6464852 26.4082016,10.7285156 26.7167969,10.7285156 L26.9921875,10.7285156 L26.9921875,10.9453125 L23.6230469,10.9453125 L23.6230469,10.7285156 L23.9042969,10.7285156 C24.2402361,10.7285156 24.4785149,10.6269541 24.6191406,10.4238281 C24.7050786,10.2988275 24.7480469,10.0136741 24.7480469,9.56835938 L24.7480469,3.49804688 L23.7929688,3.49804688 C23.4218731,3.49804688 23.1582039,3.52539035 23.0019531,3.58007812 C22.7988271,3.65429725 22.6250007,3.79687395 22.4804688,4.0078125 C22.3359368,4.21875105 22.2500001,4.50390445 22.2226562,4.86328125 L22,4.86328125 L22.09375,3 L28.5800781,3 Z" id="Small-caps"></path>
                        </g>
                    </g>
                </g>
            </g>
        </g>
    </g>
</svg>