<?xml version="1.0" encoding="UTF-8"?>
<svg width="9px" height="9px" viewBox="0 0 9 9" version="1.1" xmlns="http://www.w3.org/2000/svg" xmlns:xlink="http://www.w3.org/1999/xlink">
    <!-- Generator: Sketch 47.1 (45422) - http://www.bohemiancoding.com/sketch -->
    <title>Strikethrough</title>
    <desc>Created with Sketch.</desc>
    <defs></defs>
    <g id="Welcome" stroke="none" stroke-width="1" fill="none" fill-rule="evenodd">
        <g id="Font" transform="translate(-216.000000, -284.000000)" stroke="#4A4A4A">
            <g id="Font_bar" transform="translate(0.000000, 88.000000)">
                <g id="Default_Style" transform="translate(93.000000, 17.000000)">
                    <g id="Other-Options" transform="translate(11.000000, 177.000000)">
                        <g id="Advanced-option" transform="translate(76.000000, 0.000000)">
                            <g id="Strikethrough" transform="translate(36.000000, 3.000000)">
                                <path d="M7.58007813,0 L7.66796875,1.86328125 L7.4453125,1.86328125 C7.40234354,1.53515461 7.34375037,1.30078195 7.26953125,1.16015625 C7.14843689,0.933592617 6.98730569,0.7666021 6.78613281,0.659179688 C6.58495993,0.551757275 6.32031414,0.498046875 5.9921875,0.498046875 L4.87304688,0.498046875 L4.87304688,6.56835938 C4.87304688,7.05664307 4.92578072,7.36132752 5.03125,7.48242188 C5.17968824,7.6464852 5.40820158,7.72851562 5.71679688,7.72851562 L5.9921875,7.72851562 L5.9921875,7.9453125 L2.62304688,7.9453125 L2.62304688,7.72851562 L2.90429688,7.72851562 C3.24023605,7.72851562 3.47851492,7.62695414 3.61914063,7.42382812 C3.70507855,7.2988275 3.74804688,7.0136741 3.74804688,6.56835938 L3.74804688,0.498046875 L2.79296875,0.498046875 C2.42187314,0.498046875 2.15820391,0.525390352 2.00195313,0.580078125 C1.79882711,0.654297246 1.62500072,0.796873945 1.48046875,1.0078125 C1.33593678,1.21875105 1.25000014,1.50390445 1.22265625,1.86328125 L1,1.86328125 L1.09375,0 L7.58007813,0 Z" id="Small-caps-Copy" stroke-width="0.05" fill="#4A4A4A"></path>
                                <path d="M0,4 L9,4" id="Path-12" stroke-width="0.5"></path>
                            </g>
                        </g>
                    </g>
                </g>
            </g>
        </g>
    </g>
</svg>