<?xml version="1.0" encoding="UTF-8"?>
<svg width="18px" height="18px" viewBox="0 0 18 18" version="1.1" xmlns="http://www.w3.org/2000/svg" xmlns:xlink="http://www.w3.org/1999/xlink">
    <!-- Generator: Sketch 47.1 (45422) - http://www.bohemiancoding.com/sketch -->
    <title>Instagram</title>
    <desc>Created with Sketch.</desc>
    <defs>
        <polygon id="path-1" points="18 8.99996087 18 0 0 0 0 8.99996087 0 17.9999217 18 17.9999217"></polygon>
    </defs>
    <g id="Welcome" stroke="none" stroke-width="1" fill="none" fill-rule="evenodd">
        <g id="Sources" transform="translate(-201.000000, -123.000000)">
            <g id="Sources_bar" transform="translate(0.000000, 90.000000)">
                <g id="Instagram" transform="translate(201.000000, 33.000000)">
                    <mask id="mask-2" fill="white">
                        <use xlink:href="#path-1"></use>
                    </mask>
                    <g id="Clip-2"></g>
                    <path d="M9,5.08687826 C6.84156522,5.08687826 5.08695652,6.84148696 5.08695652,8.99992174 C5.08695652,11.1583565 6.84156522,12.9129652 9,12.9129652 C11.1584348,12.9129652 12.9130435,11.1583565 12.9130435,8.99992174 C12.9130435,6.84148696 11.1584348,5.08687826 9,5.08687826 L9,5.08687826 Z M9,4.30426957 C11.5892609,4.30426957 13.6956522,6.41066087 13.6956522,8.99992174 C13.6956522,11.5891826 11.5892609,13.6955739 9,13.6955739 C6.41073913,13.6955739 4.30434783,11.5891826 4.30434783,8.99992174 C4.30434783,6.41066087 6.41073913,4.30426957 9,4.30426957 L9,4.30426957 Z M14.0869565,3.13035652 C14.5193478,3.13035652 14.8695652,3.48057391 14.8695652,3.91296522 C14.8695652,4.34535652 14.5193478,4.69557391 14.0869565,4.69557391 C13.6545652,4.69557391 13.3043478,4.34535652 13.3043478,3.91296522 C13.3043478,3.48057391 13.6545652,3.13035652 14.0869565,3.13035652 L14.0869565,3.13035652 Z M5.08695652,-7.82608696e-05 C2.28208696,-7.82608696e-05 0,2.2820087 0,5.08687826 L0,12.9129652 C0,15.7178348 2.28208696,17.9999217 5.08695652,17.9999217 L12.9130435,17.9999217 C15.717913,17.9999217 18,15.7178348 18,12.9129652 L18,5.08687826 C18,2.2820087 15.717913,-7.82608696e-05 12.9130435,-7.82608696e-05 L5.08695652,-7.82608696e-05 Z" id="Fill-1" fill="#B4B4B4" mask="url(#mask-2)"></path>
                </g>
            </g>
        </g>
    </g>
</svg>