<?xml version="1.0" encoding="UTF-8"?>
<svg width="18px" height="18px" viewBox="0 0 18 18" version="1.1" xmlns="http://www.w3.org/2000/svg" xmlns:xlink="http://www.w3.org/1999/xlink">
    <!-- Generator: Sketch 47.1 (45422) - http://www.bohemiancoding.com/sketch -->
    <title>Thumblr</title>
    <desc>Created with Sketch.</desc>
    <defs></defs>
    <g id="Welcome" stroke="none" stroke-width="1" fill="none" fill-rule="evenodd">
        <g id="Sources" transform="translate(-246.000000, -123.000000)" fill="#B4B4B4">
            <g id="Sources_bar" transform="translate(0.000000, 90.000000)">
                <g id="Thumblr" transform="translate(246.000000, 33.000000)">
                    <path d="M12.24,14.48568 C12.24,14.53068 12.2202,14.5728 12.1878,14.60232 C12.14568,14.63904 11.16432,15.48 8.90712,15.48 C6.2028,15.48 6.12,12.46212 6.12,12.11904 L6.12,8.28396 L4.8348,8.28 C4.74876,8.28 4.68,8.21376 4.68,8.12808 L4.68,6.77088 C4.68,6.70788 4.71924,6.64992 4.77828,6.62616 C4.80384,6.61788 7.22124,5.67864 7.22124,3.3948 C7.22124,3.30876 7.29144,3.24 7.37712,3.24 L8.84808,3.24 C8.93376,3.24 9.00288,3.30876 9.00288,3.3948 L9,6.12 L11.36232,6.12 C11.44836,6.12 11.51712,6.19452 11.51712,6.2802 L11.51712,8.11944 C11.51712,8.20404 11.44836,8.28 11.36232,8.28 L9,8.28 L9,12.06144 C9,12.15 9.08172,13.2354 10.23624,13.2354 C11.1924,13.2354 11.9952,12.74328 12.00384,12.73788 C12.05172,12.70692 12.11076,12.70548 12.15972,12.73356 C12.20904,12.7602 12.24,12.8124 12.24,12.86856 L12.24,14.48568 Z M14.4,0 L3.6,0 C1.61424,0 0,1.61424 0,3.6 L0,14.4 C0,16.3854 1.61424,18 3.6,18 L14.4,18 C16.38576,18 18,16.3854 18,14.4 L18,3.6 C18,1.61424 16.38576,0 14.4,0 L14.4,0 Z" id="Page-1"></path>
                </g>
            </g>
        </g>
    </g>
</svg>