<?xml version="1.0" encoding="UTF-8"?>
<svg width="21px" height="17px" viewBox="0 0 21 17" version="1.1" xmlns="http://www.w3.org/2000/svg" xmlns:xlink="http://www.w3.org/1999/xlink">
    <!-- Generator: Sketch 47.1 (45422) - http://www.bohemiancoding.com/sketch -->
    <title>Fill 1</title>
    <desc>Created with Sketch.</desc>
    <defs></defs>
    <g id="Welcome" stroke="none" stroke-width="1" fill="none" fill-rule="evenodd">
        <g id="Sources" transform="translate(-111.000000, -123.000000)" fill="#B4B4B4">
            <g id="Sources_bar" transform="translate(0.000000, 90.000000)">
                <g id="Twitter_active" transform="translate(111.000000, 33.000000)">
                    <path d="M20.4371704,1.96542384 C19.6836376,2.30019137 18.8762811,2.52445708 18.0273335,2.62639603 C18.8938146,2.10732287 19.5596799,1.28528713 19.8716131,0.307488666 C19.0626255,0.786601758 18.1627084,1.13564074 17.2085598,1.32361618 C16.4440176,0.508104531 15.354494,4.07755823e-05 14.1487601,4.07755823e-05 C11.832707,4.07755823e-05 9.95499144,1.87612532 9.95499144,4.19217839 C9.95499144,4.52042183 9.99332049,4.84051015 10.0650855,5.14795804 C6.57999649,4.97262304 3.49124613,3.3032707 1.42229309,0.766213967 C1.06061367,1.38722609 0.855512492,2.10732287 0.855512492,2.87471933 C0.855512492,4.32918435 1.59436604,5.61279968 2.72058763,6.36633244 C2.0322958,6.34390587 1.38559506,6.15429941 0.820445492,5.84073518 L0.820445492,5.89333569 C0.820445492,7.92559071 2.26634764,9.61900064 4.18280001,10.0059609 C3.83213,10.1013758 3.4610722,10.1523453 3.079005,10.1523453 C2.80825513,10.1523453 2.54525262,10.1270644 2.28877421,10.0760949 C2.82415761,11.7405542 4.37240647,12.9556665 6.20567665,12.9891025 C4.77200717,14.1136931 2.96401785,14.7828204 0.998634786,14.7828204 C0.659381941,14.7828204 0.32665319,14.7636559 4.07755823e-05,14.7236958 C1.8541065,15.9151583 4.05843448,16.6079354 6.42708806,16.6079354 C14.1393817,16.6079354 18.3568002,10.2192172 18.3568002,4.6794466 C18.3568002,4.49799526 18.3523149,4.3149129 18.3457908,4.13631584 C19.1645645,3.54547766 19.8748751,2.80662411 20.4371704,1.96542384" id="Fill-1"></path>
                </g>
            </g>
        </g>
    </g>
</svg>