<?xml version="1.0" encoding="UTF-8"?>
<svg width="20px" height="20px" viewBox="0 0 20 20" version="1.1" xmlns="http://www.w3.org/2000/svg" xmlns:xlink="http://www.w3.org/1999/xlink">
    <!-- Generator: Sketch 47.1 (45422) - http://www.bohemiancoding.com/sketch -->
    <title>Wikipedia</title>
    <desc>Created with Sketch.</desc>
    <defs></defs>
    <g id="Welcome" stroke="none" stroke-width="1" fill="none" fill-rule="evenodd">
        <g id="Sources" transform="translate(-156.000000, -122.000000)" fill="#B4B4B4">
            <g id="Sources_bar" transform="translate(0.000000, 90.000000)">
                <g id="Wikipedia" transform="translate(156.000000, 32.000000)">
                    <path d="M10,10.6639583 L12.5129167,17.5127083 C11.72375,17.7764583 10.87875,17.9164583 10,17.9164583 C9.17958333,17.9164583 8.38708333,17.7960417 7.64333333,17.5647917 L10,10.6639583 Z M2.59125,7.21354167 L6.14583333,16.9139583 C3.7225,15.5614583 2.08333333,12.9735417 2.08333333,9.99979167 C2.08333333,9.01854167 2.26583333,8.079375 2.59125,7.21354167 L2.59125,7.21354167 Z M17.1225,6.549375 C17.62875,7.59270833 17.9166667,8.76145833 17.9166667,9.99979167 C17.9166667,12.8872917 16.36875,15.4002083 14.0625,16.7839583 L16.4975,9.75229167 C16.95625,8.585625 17.1225,7.63020833 17.1225,6.796875 C17.1225,6.710625 17.1258333,6.62729167 17.1225,6.549375 L17.1225,6.549375 Z M10,2.083125 C11.9466667,2.083125 13.7254167,2.794375 15.1041667,3.958125 C14.4629167,4.119375 14.0366667,4.716875 14.0366667,5.37729167 C14.0366667,6.04520833 14.4141667,6.624375 14.8308333,7.29145833 C15.1645833,7.83354167 15.495,8.54479167 15.495,9.54395833 C15.495,10.2522917 15.2866667,11.129375 14.87,12.2135417 L14.0366667,14.9610417 L11.0808333,6.11979167 C11.5804167,6.07770833 12.0441667,6.04145833 12.0441667,6.04145833 C12.4608333,5.999375 12.4216667,5.37729167 12.005,5.37729167 L11.9529167,5.37729167 C11.9529167,5.37729167 10.6283333,5.49479167 9.7525,5.49479167 C8.96166667,5.49479167 7.57833333,5.37729167 7.57833333,5.37729167 L7.53916667,5.37729167 C7.1225,5.37729167 7.08333333,6.04145833 7.5,6.04145833 C7.5,6.04145833 7.91333333,6.07770833 8.3725,6.11979167 L9.66166667,9.62229167 L7.8775,14.9997917 L4.86958333,6.080625 C5.36958333,6.03854167 5.83333333,6.00229167 5.83333333,6.00229167 C6.25,5.96020833 6.21083333,5.33854167 5.79416667,5.33854167 L5.755,5.33854167 C5.755,5.33854167 4.4175,5.455625 3.54166667,5.455625 L3.52875,5.455625 C4.96083333,3.41770833 7.31916667,2.083125 10,2.083125 L10,2.083125 Z M10,-0.000208333333 C4.48583333,-0.000208333333 0,4.485625 0,9.99979167 C0,15.514375 4.48583333,19.9997917 10,19.9997917 C15.5141667,19.9997917 20,15.514375 20,9.99979167 C20,4.485625 15.5141667,-0.000208333333 10,-0.000208333333 L10,-0.000208333333 Z" id="Fill-1"></path>
                </g>
            </g>
        </g>
    </g>
</svg>