<?xml version="1.0" encoding="UTF-8"?>
<svg width="19px" height="22px" viewBox="0 0 19 22" version="1.1" xmlns="http://www.w3.org/2000/svg" xmlns:xlink="http://www.w3.org/1999/xlink">
    <!-- Generator: Sketch 47.1 (45422) - http://www.bohemiancoding.com/sketch -->
    <title>Font icon</title>
    <desc>Created with Sketch.</desc>
    <defs></defs>
    <g id="Welcome" stroke="none" stroke-width="1" fill="none" fill-rule="evenodd">
        <g id="TOOL" transform="translate(-32.000000, -274.000000)" fill="#767676">
            <g id="MENU" transform="translate(0.000000, 90.000000)">
                <g id="Font" transform="translate(0.000000, 160.000000)">
                    <g id="Font-icon" transform="translate(32.000000, 24.000000)">
                        <path d="M4.71191406,3.90332031 L4.71191406,10.409668 L7.72705078,10.409668 C8.41878601,10.409668 8.92537274,10.2570816 9.24682617,9.9519043 C9.5682796,9.64672699 9.78190051,9.04248499 9.88769531,8.13916016 L10.3393555,8.13916016 L10.3393555,13.7421875 L9.88769531,13.7421875 C9.87955725,13.0992806 9.79614337,12.6272802 9.63745117,12.3261719 C9.47875897,12.0250636 9.25903461,11.7992358 8.97827148,11.6486816 C8.69750836,11.4981275 8.28043896,11.4228516 7.72705078,11.4228516 L4.71191406,11.4228516 L4.71191406,16.6230469 C4.71191406,17.4612672 4.76481067,18.0146471 4.87060547,18.2832031 C4.95198608,18.4866547 5.12288281,18.6616204 5.38330078,18.8081055 C5.74137549,19.0034189 6.1157207,19.1010742 6.50634766,19.1010742 L7.10449219,19.1010742 L7.10449219,19.5527344 L0,19.5527344 L0,19.1010742 L0.5859375,19.1010742 C1.26953467,19.1010742 1.76594897,18.9016947 2.07519531,18.5029297 C2.27050879,18.2425117 2.36816406,17.6158904 2.36816406,16.6230469 L2.36816406,5.9296875 C2.36816406,5.09146716 2.31526746,4.53808728 2.20947266,4.26953125 C2.12809204,4.06607971 1.96126428,3.89111401 1.70898438,3.74462891 C1.35904773,3.54931543 0.984702515,3.45166016 0.5859375,3.45166016 L0,3.45166016 L0,3 L12.3168945,3 L12.4755859,6.63769531 L12.0483398,6.63769531 C11.8367502,5.86457947 11.5905776,5.29695819 11.3098145,4.93481445 C11.0290513,4.57267072 10.6831889,4.31022217 10.2722168,4.14746094 C9.86124469,3.98469971 9.22445093,3.90332031 8.36181641,3.90332031 L4.71191406,3.90332031 Z" id="F"></path>
                        <polygon id="Path-4" fill-rule="nonzero" points="17.5 0.0619468922 17.5 21.6441022 18.5 21.6441022 18.5 0.0619468922"></polygon>
                    </g>
                </g>
            </g>
        </g>
    </g>
</svg>