<?xml version="1.0" encoding="UTF-8"?>
<svg width="44px" height="20px" viewBox="0 0 44 20" version="1.1" xmlns="http://www.w3.org/2000/svg" xmlns:xlink="http://www.w3.org/1999/xlink">
    <!-- Generator: Sketch 47.1 (45422) - http://www.bohemiancoding.com/sketch -->
    <title>Random</title>
    <desc>Created with Sketch.</desc>
    <defs></defs>
    <g id="Welcome" stroke="none" stroke-width="1" fill="none" fill-rule="evenodd">
        <g id="Sources" transform="translate(-18.000000, -986.000000)" fill="#767676">
            <g id="MENU" transform="translate(0.000000, 90.000000)">
                <g id="Random" transform="translate(18.000000, 896.000000)">
                    <path d="M41.3271959,15.7368919 L27.8212798,15.7368919 L22.1048411,10.0203449 L27.821186,4.30399998 L41.3287013,4.30399998 L38.4448021,6.98410208 L39.0846914,7.67088689 L43.2093863,3.83577171 L39.0846914,-4.68955145e-05 L38.4448021,0.686972392 L41.3272123,3.36608969 L27.4328911,3.36608969 L21.4417448,9.35723603 L15.450712,3.36608969 L2.71050543e-20,3.36608969 L2.71050543e-20,4.30399998 L15.0621827,4.30399998 L20.7786359,10.0203449 L15.0620889,15.7368919 L-9.3791029e-05,15.7368919 L-9.3791029e-05,16.6745678 L15.4506182,16.6745678 L21.4417448,10.6834412 L27.4329849,16.6745678 L41.3290639,16.6745678 L38.444849,19.3547636 L39.0847383,20.0417829 L43.2094332,16.2066678 L39.0847383,12.3708491 L38.444849,13.057634 L41.3271959,15.7368919 Z" id="Combined-Shape"></path>
                </g>
            </g>
        </g>
    </g>
</svg>