<?xml version="1.0" encoding="UTF-8"?>
<svg width="12px" height="10px" viewBox="0 0 12 10" version="1.1" xmlns="http://www.w3.org/2000/svg" xmlns:xlink="http://www.w3.org/1999/xlink">
    <!-- Generator: Sketch 47.1 (45422) - http://www.bohemiancoding.com/sketch -->
    <title>Drop Cap_icon</title>
    <desc>Created with Sketch.</desc>
    <defs></defs>
    <g id="Welcome" stroke="none" stroke-width="1" fill="none" fill-rule="evenodd">
        <g id="Paragraph" transform="translate(-222.000000, -269.000000)" fill="#4A4A4A">
            <g id="Paragraph_bar" transform="translate(0.000000, 88.000000)">
                <g id="Default_Style" transform="translate(93.000000, 17.000000)">
                    <g id="Options" transform="translate(10.000000, 56.000000)">
                        <g id="Drop-Cap" transform="translate(0.000000, 106.000000)">
                            <g id="Drop-Cap_icon" transform="translate(119.000000, 2.000000)">
                                <rect id="Rectangle-5-Copy-4" x="8" y="0" width="4" height="1"></rect>
                                <rect id="Rectangle-5-Copy-5" x="8" y="3" width="4" height="1"></rect>
                                <rect id="Rectangle-5-Copy-6" x="0" y="6" width="12" height="1"></rect>
                                <rect id="Rectangle-5-Copy-7" x="0" y="9" width="12" height="1"></rect>
                                <path d="M2.95698925,3.94623656 L2.56451613,2.85483871 L1.06182796,2.85483871 L0.677419355,3.94623656 L0,3.94623656 L1.47043011,0 L2.16935484,0 L3.63978495,3.94623656 L2.95698925,3.94623656 Z M2.39516129,2.30107527 L2.02688172,1.2311828 C1.99999987,1.15949785 1.96281386,1.04659575 1.91532258,0.892473118 C1.8678313,0.738350484 1.83512554,0.625448387 1.8172043,0.553763441 C1.76881696,0.774194651 1.69802914,1.01523167 1.60483871,1.27688172 L1.25,2.30107527 L2.39516129,2.30107527 Z M5.9516129,3.94623656 L5.82526882,3.53225806 L5.80376344,3.53225806 C5.66039355,3.71326255 5.51612976,3.83646921 5.37096774,3.90188172 C5.22580573,3.96729423 5.03942766,4 4.81182796,4 C4.5197118,4 4.29166749,3.92114774 4.12768817,3.76344086 C3.96370886,3.60573398 3.88172043,3.38261793 3.88172043,3.09408602 C3.88172043,2.78763288 3.99551858,2.55645239 4.22311828,2.40053763 C4.45071798,2.24462288 4.79748871,2.15949828 5.26344086,2.14516129 L5.77688172,2.12903226 L5.77688172,1.97043011 C5.77688172,1.780465 5.73252733,1.63844133 5.6438172,1.54435484 C5.55510708,1.45026835 5.41756366,1.40322581 5.2311828,1.40322581 C5.07885228,1.40322581 4.9327964,1.42562702 4.79301075,1.47043011 C4.65322511,1.5152332 4.51881785,1.56810005 4.38978495,1.62903226 L4.18548387,1.17741935 C4.346775,1.09318954 4.52329653,1.02912208 4.71505376,0.985215054 C4.90681099,0.941308024 5.08781277,0.919354839 5.25806452,0.919354839 C5.63620261,0.919354839 5.92159402,1.00179129 6.11424731,1.16666667 C6.3069006,1.33154204 6.40322581,1.59050003 6.40322581,1.94354839 L6.40322581,3.94623656 L5.9516129,3.94623656 Z M5.01075269,3.51612903 C5.24014452,3.51612903 5.42428246,3.45206157 5.56317204,3.32392473 C5.70206163,3.19578789 5.77150538,3.01613019 5.77150538,2.78494624 L5.77150538,2.52688172 L5.38978495,2.54301075 C5.09229242,2.55376349 4.87589673,2.60349418 4.7405914,2.6922043 C4.60528606,2.78091442 4.53763441,2.91666575 4.53763441,3.09946237 C4.53763441,3.23207952 4.57706054,3.33467706 4.65591398,3.40725806 C4.73476742,3.47983907 4.85304581,3.51612903 5.01075269,3.51612903 Z" id="Aa"></path>
                            </g>
                        </g>
                    </g>
                </g>
            </g>
        </g>
    </g>
</svg>