<?xml version="1.0" encoding="UTF-8"?>
<svg width="287px" height="34px" viewBox="0 0 287 34" version="1.1" xmlns="http://www.w3.org/2000/svg" xmlns:xlink="http://www.w3.org/1999/xlink">
    <!-- Generator: Sketch 47.1 (45422) - http://www.bohemiancoding.com/sketch -->
    <title>softmachine logo</title>
    <desc>Created with Sketch.</desc>
    <defs></defs>
    <g id="Welcome" stroke="none" stroke-width="1" fill="none" fill-rule="evenodd">
        <g id="Sources" transform="translate(-25.000000, -29.000000)" fill="#FFFFFF">
            <g id="Header">
                <g id="softmachine-logo" transform="translate(25.000000, 24.000000)">
                    <text id="The-Soft-Machine" font-family="OpenSans-Light, Open Sans" font-size="30" font-weight="300">
                        <tspan x="55" y="32">The Soft Machine</tspan>
                    </text>
                    <path d="M4.28099887,31.8839575 C2.88235601,31.8839575 1.74503164,33.0217181 1.74503164,34.4199247 C1.74503164,35.8185676 2.88235601,36.9563282 4.28099887,36.9563282 L20.8880287,36.9563282 C20.364083,36.2461003 20.0543399,35.3683494 20.0543399,34.4199247 C20.0543399,33.4719363 20.364083,32.5941853 20.8880287,31.8839575 L4.28099887,31.8839575 Z M24.3353387,36.9563282 C25.5974329,36.9563282 26.871306,36.1719365 26.871306,34.4199247 L26.871306,6.74503164 L6.68783376,6.74503164 L6.68783376,30.1389258 L24.3353387,30.1389258 L24.3353387,31.8839575 C22.9371321,31.8839575 21.7993715,33.0217181 21.7993715,34.4199247 C21.7993715,35.8185676 22.9371321,36.9563282 24.3353387,36.9563282 L24.3353387,36.9563282 Z M24.3353387,38.7013598 L4.28099887,38.7013598 C1.92040732,38.7013598 0,36.7809525 0,34.4199247 C0,32.0593331 1.92040732,30.1389258 4.28099887,30.1389258 L4.94280212,30.1389258 L4.94280212,5 L28.6163376,5 L28.6163376,34.4199247 C28.6163376,36.9009234 26.8159012,38.7013598 24.3353387,38.7013598 L24.3353387,38.7013598 Z" id="Logo-softmachine"></path>
                </g>
            </g>
        </g>
    </g>
</svg>