<?xml version="1.0" encoding="UTF-8"?>
<svg width="20px" height="23px" viewBox="0 0 20 23" version="1.1" xmlns="http://www.w3.org/2000/svg" xmlns:xlink="http://www.w3.org/1999/xlink">
    <!-- Generator: Sketch 47.1 (45422) - http://www.bohemiancoding.com/sketch -->
    <title>Profile</title>
    <desc>Created with Sketch.</desc>
    <defs></defs>
    <g id="Welcome" stroke="none" stroke-width="1" fill="none" fill-rule="evenodd">
        <g id="Sources" transform="translate(-970.000000, -34.000000)" fill="#FFFFFF">
            <g id="Header">
                <g id="Profile" transform="translate(970.000000, 34.000000)">
                    <path d="M9.75003897,1.02631989 C6.73086243,1.02631989 4.27462235,3.48255997 4.27462235,6.50173652 C4.27462235,9.52065648 6.73086243,11.9771531 9.75003897,11.9771531 C12.7692155,11.9771531 15.2254556,9.52065648 15.2254556,6.50173652 C15.2254556,3.48255997 12.7692155,1.02631989 9.75003897,1.02631989 M9.75003897,13.003473 C6.16484701,13.003473 3.24830246,10.0869285 3.24830246,6.50173652 C3.24830246,2.91654455 6.16484701,0 9.75003897,0 C13.3352309,0 16.2517755,2.91654455 16.2517755,6.50173652 C16.2517755,10.0869285 13.3352309,13.003473 9.75003897,13.003473" id="Fill-1"></path>
                    <path d="M19.5000779,22.6248885 L0,22.6248885 L0,16.758444 C0,15.3172343 1.05505685,11.0816121 5.74277296,10.5404849 L5.86054316,11.5603903 C1.91434318,12.0153066 1.02631989,15.5543141 1.02631989,16.758444 L1.02631989,21.5985686 L18.4737581,21.5985686 L18.4737581,16.758444 C18.4737581,15.7806177 17.6532153,12.0337803 13.638765,11.56116 L13.7585879,10.5417678 C18.5255872,11.1031648 19.5000779,15.5879261 19.5000779,16.758444 L19.5000779,22.6248885 Z" id="Fill-3"></path>
                </g>
            </g>
        </g>
    </g>
</svg>